PathFileType	4	(X/Y/Z)	SUBJ62_0_static_RCNL2025.trc
DataRate	CameraRate	NumFrames	NumMarkers	Units	OrigDataRate	OrigDataStartFrame	OrigNumFrames
100	100	10	25	mm	100	29	85
Frame#	Time	R_Shoulder			L_Shoulder			C7			J_Notch			R_Elbow			L_Elbow			R_Wrist			L_Wrist			R_Asis			L_Asis			Sacral			Thoracic			Sternum			R_Thigh_Lateral			R_Knee_Lateral			R_Shank_Lateral			R_Ankle_Lateral			R_Heel			R_Toe			L_Thigh_Lateral			L_Knee_Lateral			L_Shank_Lateral			L_Ankle_Lateral			L_Heel			L_Toe		
		X1	Y1	Z1	X2	Y2	Z2	X3	Y3	Z3	X4	Y4	Z4	X5	Y5	Z5	X6	Y6	Z6	X7	Y7	Z7	X8	Y8	Z8	X9	Y9	Z9	X10	Y10	Z10	X11	Y11	Z11	X12	Y12	Z12	X13	Y13	Z13	X14	Y14	Z14	X15	Y15	Z15	X16	Y16	Z16	X17	Y17	Z17	X18	Y18	Z18	X19	Y19	Z19	X20	Y20	Z20	X21	Y21	Z21	X22	Y22	Z22	X23	Y23	Z23	X24	Y24	Z24	X25	Y25	Z25
29	0.28000000	-297.929108	1299.564819	-70.267372	-306.471436	1301.185303	-408.237915	-368.203064	1359.239502	-242.511292	-235.044205	1275.853027	-244.583893	-359.063232	1014.549683	12.872727	-327.651367	1014.040955	-506.311249	-293.923065	802.669403	22.921879	-274.039505	801.650177	-509.499924	-241.218979	877.950928	-96.965500	-235.219330	866.480103	-356.752716	-412.067657	884.640808	-233.846283	-422.162537	1162.375366	-240.077164	-213.635300	1076.873169	-240.852463	-351.291077	500.438416	-17.886694	-355.527679	437.722595	-90.109238	-375.307587	260.406311	-47.529461	-373.317749	65.051979	-119.815773	-418.526611	47.194199	-166.073013	-267.410522	47.989479	-122.969513	-356.712036	479.867249	-409.479736	-378.670013	416.865784	-360.497925	-380.178131	224.036957	-394.938782	-370.054688	54.866371	-326.161591	-420.700562	51.245705	-274.867737	-259.693359	39.214260	-329.008484
30	0.29000000	-297.920288	1299.587158	-70.263603	-306.431702	1301.195557	-408.252350	-368.181976	1359.239746	-242.538239	-235.015549	1275.831421	-244.535706	-359.058014	1014.608887	12.874537	-327.694946	1014.238831	-506.693878	-293.984802	802.682922	22.894458	-273.996231	801.644836	-509.551147	-241.242813	877.882874	-96.918228	-235.212067	866.473999	-356.776978	-412.027008	884.666199	-233.896057	-422.125031	1162.455811	-240.136658	-213.571777	1076.908936	-240.879379	-351.305542	500.453247	-17.860384	-355.503448	437.714905	-90.106010	-375.285614	260.401276	-47.550846	-373.309418	65.033417	-119.813637	-418.482208	47.188244	-166.102814	-267.406860	47.988705	-122.973969	-356.712555	479.838318	-409.389496	-378.654022	416.868744	-360.500916	-380.154297	224.016876	-394.941559	-370.213348	54.933746	-326.103668	-420.694092	51.283352	-274.869873	-259.665619	39.247765	-329.029510
31	0.30000000	-297.983185	1299.558838	-70.214928	-306.398651	1301.149170	-408.243042	-368.221497	1359.222290	-242.483475	-234.921494	1275.859863	-244.632919	-359.051819	1014.602966	12.872548	-327.549866	1014.243530	-506.584595	-293.958588	802.694702	22.911712	-274.030457	801.617249	-509.515839	-241.241821	877.886841	-96.910278	-235.208679	866.491272	-356.783173	-412.039490	884.675598	-233.875916	-422.102081	1162.355469	-240.150696	-213.555038	1076.916260	-240.879684	-351.243774	500.401520	-17.893042	-355.498169	437.705231	-90.124634	-375.376312	260.330414	-47.489136	-373.363373	65.015373	-119.794411	-418.464935	47.154579	-166.058182	-267.458069	47.921764	-122.939529	-356.660675	479.877960	-409.426025	-378.564575	416.865753	-360.458740	-380.196289	224.009384	-394.960693	-369.992981	54.712997	-326.216278	-420.699310	51.256989	-274.862396	-259.681580	39.224079	-328.989380
32	0.31000000	-297.926117	1299.510498	-70.268806	-306.399200	1301.169678	-408.243500	-368.197784	1359.186157	-242.508789	-234.906006	1275.864990	-244.651291	-359.083893	1014.533752	12.891007	-327.557373	1014.050842	-506.402802	-294.009155	802.680389	22.881020	-273.987106	801.612640	-509.491623	-241.232544	877.940186	-96.953323	-235.207108	866.514832	-356.762878	-412.048553	884.643921	-233.867676	-422.130280	1162.396484	-240.117035	-213.584930	1076.857178	-240.901703	-351.194427	500.363464	-17.937250	-355.525726	437.747009	-90.231873	-375.366272	260.326752	-47.520813	-373.501984	65.048561	-119.851166	-418.465912	47.152649	-166.053299	-267.474304	47.915890	-122.907219	-356.780762	479.844177	-409.405151	-378.625793	416.879608	-360.475983	-380.214966	224.009842	-394.933899	-369.967163	54.704327	-326.207336	-420.786011	51.251324	-274.802917	-259.690613	39.220840	-329.005920
33	0.32000000	-297.932831	1299.529541	-70.255455	-306.391937	1301.139526	-408.242310	-368.160736	1359.213867	-242.410660	-234.993835	1275.808472	-244.645554	-359.120483	1014.592163	12.919046	-327.537231	1014.176453	-506.545715	-293.998032	802.692535	22.864638	-273.938065	801.630707	-509.605026	-241.219803	877.905884	-96.964111	-235.207458	866.515991	-356.759735	-412.042938	884.674561	-233.871994	-422.152954	1162.411987	-240.088333	-213.502884	1076.799683	-240.824509	-351.193542	500.367371	-17.930902	-355.502777	437.716034	-90.140305	-375.354156	260.359772	-47.500614	-373.420685	65.056458	-119.775070	-418.474976	47.195354	-166.100235	-267.395050	47.958942	-122.987267	-356.727844	479.827332	-409.316956	-378.639984	416.881500	-360.481842	-380.166809	224.007217	-394.938507	-370.178192	54.794521	-326.056274	-420.749512	51.210651	-274.802887	-259.630707	39.246464	-329.054596
34	0.33000000	-297.935455	1299.493286	-70.267693	-306.393463	1301.138184	-408.251129	-368.077057	1359.273071	-242.471420	-234.840286	1275.810059	-244.474243	-359.075287	1014.611328	12.888212	-327.682251	1014.210938	-506.735474	-293.964859	802.670654	22.922599	-273.873764	801.620422	-509.616135	-241.225418	877.864807	-96.979469	-235.209045	866.477905	-356.779297	-412.026215	884.666077	-233.896561	-422.019287	1162.398560	-240.217316	-213.521454	1076.776245	-240.941147	-351.211761	500.368561	-17.923611	-355.488770	437.699829	-90.136238	-375.275635	260.378632	-47.565987	-373.379089	65.097649	-119.803825	-418.391388	47.156441	-166.031479	-267.398987	47.974018	-122.966919	-356.727417	479.816315	-409.399078	-378.647675	416.875000	-360.528381	-380.144775	223.987839	-394.961395	-370.171661	54.841305	-326.073853	-420.696686	51.236118	-274.865570	-259.712555	39.249805	-329.003479
35	0.34000000	-297.885376	1299.565918	-70.298927	-306.323639	1301.176270	-408.233307	-368.039581	1359.218018	-242.514526	-234.850586	1275.850098	-244.657730	-359.066376	1014.562256	12.871117	-327.504700	1014.102539	-506.490662	-294.021286	802.675201	22.932236	-273.906876	801.635071	-509.623215	-241.207031	877.958191	-97.008125	-235.210190	866.489502	-356.782532	-411.990875	884.612488	-233.934677	-421.941132	1162.384277	-240.159927	-213.412476	1076.778564	-240.922302	-351.189392	500.351379	-17.946068	-355.469177	437.677887	-90.160179	-375.279968	260.397858	-47.555271	-373.343201	65.049454	-119.809387	-418.466888	47.171829	-166.104324	-267.388092	47.961040	-122.992233	-356.774231	479.826172	-409.365662	-378.656677	416.848755	-360.496399	-380.133392	223.976532	-395.000305	-369.999023	54.718777	-326.188171	-420.690948	51.284203	-274.872864	-259.686737	39.221264	-329.004700
36	0.35000000	-297.901001	1299.479126	-70.298027	-306.353760	1301.196167	-408.303223	-368.038025	1359.213501	-242.516312	-234.787903	1275.819580	-244.576981	-359.054901	1014.552002	12.862738	-327.418579	1014.022095	-506.410400	-293.995193	802.679901	22.930481	-273.844391	801.628601	-509.638992	-241.099838	878.001587	-97.102837	-235.208893	866.492798	-356.782227	-412.006805	884.573792	-233.912415	-422.052673	1162.420288	-240.167572	-213.481888	1076.851074	-240.990662	-351.200256	500.372894	-17.948067	-355.592712	437.657349	-90.215126	-375.379120	260.377960	-47.588650	-373.513336	65.043884	-119.839813	-418.476318	47.177105	-166.110428	-267.400330	47.968269	-122.975105	-356.747131	479.812866	-409.397186	-378.666107	416.866821	-360.501678	-380.203735	223.995148	-394.953217	-369.963776	54.684818	-326.232086	-420.755890	51.286407	-274.845642	-259.736023	39.208931	-328.993225
37	0.36000000	-297.858337	1299.551270	-70.330078	-306.256897	1301.158691	-408.298401	-368.040588	1359.215332	-242.514053	-234.862854	1275.772583	-244.592392	-359.056244	1014.552002	12.865324	-327.509521	1014.203308	-506.686676	-293.990128	802.668518	22.961134	-273.829117	801.627411	-509.684204	-241.174545	877.966248	-97.009377	-235.208984	866.477051	-356.780914	-412.043213	884.625427	-233.873337	-421.972137	1162.368042	-240.129379	-213.386642	1076.870361	-240.940338	-351.201385	500.353180	-17.937763	-355.617218	437.654449	-90.195419	-375.293793	260.396881	-47.571434	-373.462341	65.048927	-119.863556	-418.462738	47.167767	-166.126877	-267.415283	47.985336	-122.955376	-356.755096	479.819885	-409.385590	-378.593994	416.860229	-360.510132	-380.216675	224.014389	-394.941803	-370.132446	54.824799	-326.135284	-420.712952	51.246223	-274.877808	-259.738983	39.210136	-328.985168
38	0.37000000	-297.843872	1299.523438	-70.330635	-306.211700	1301.170898	-408.278717	-368.041077	1359.215576	-242.513672	-234.834030	1275.755615	-244.517059	-359.064331	1014.558594	12.869120	-327.495819	1014.217590	-506.778198	-293.996170	802.680206	22.947736	-273.846390	801.664276	-509.679855	-241.130203	877.983032	-97.093742	-235.138290	866.502380	-356.830536	-411.989868	884.588623	-233.915695	-421.974518	1162.432129	-240.116943	-213.377228	1076.818726	-240.913147	-351.220215	500.368439	-17.927427	-355.617950	437.657196	-90.187042	-375.299286	260.419556	-47.558601	-373.335907	65.018036	-119.832436	-418.462982	47.132870	-166.065735	-267.411041	47.976955	-122.946915	-356.689362	479.786163	-409.434570	-378.659546	416.809418	-360.534485	-380.166748	224.012970	-394.937500	-370.041382	54.718166	-326.250183	-420.702148	51.239376	-274.883301	-259.694489	39.213882	-329.007568
